<mxfile host="Electron" modified="2024-03-24T08:09:01.184Z" agent="Mozilla/5.0 (Windows NT 10.0; Win64; x64) AppleWebKit/537.36 (KHTML, like Gecko) draw.io/21.2.1 Chrome/112.0.5615.87 Electron/24.1.2 Safari/537.36" etag="4ehBKnR6DilwBAAVbr6G" version="21.2.1" type="device">
  <diagram name="第 1 页" id="rJwtvNQE6iMF8aAIOu9q">
    <mxGraphModel dx="2412" dy="1614" grid="1" gridSize="10" guides="1" tooltips="1" connect="1" arrows="1" fold="1" page="1" pageScale="1" pageWidth="3300" pageHeight="2339" math="0" shadow="0">
      <root>
        <mxCell id="0" />
        <mxCell id="1" parent="0" />
        <mxCell id="gHFgi6DUg5RWtwFcLHI8-47" style="edgeStyle=orthogonalEdgeStyle;rounded=0;orthogonalLoop=1;jettySize=auto;html=1;exitX=1;exitY=0.5;exitDx=0;exitDy=-5;exitPerimeter=0;" edge="1" parent="1" source="FXC5fNaygE3iJHcJ0aOk-2" target="gHFgi6DUg5RWtwFcLHI8-46">
          <mxGeometry relative="1" as="geometry" />
        </mxCell>
        <mxCell id="FXC5fNaygE3iJHcJ0aOk-2" value="Mux" style="shadow=0;dashed=0;align=center;html=1;strokeWidth=1;shape=mxgraph.electrical.abstract.mux2;whiteSpace=wrap;flipV=1;flipH=0;rounded=0;" parent="1" vertex="1">
          <mxGeometry x="2570" y="83" width="80" height="120" as="geometry" />
        </mxCell>
        <mxCell id="FXC5fNaygE3iJHcJ0aOk-5" style="edgeStyle=orthogonalEdgeStyle;rounded=0;orthogonalLoop=1;jettySize=auto;html=1;exitX=1;exitY=0.5;exitDx=0;exitDy=0;entryX=0;entryY=0.5;entryDx=0;entryDy=0;entryPerimeter=0;" parent="1" source="FXC5fNaygE3iJHcJ0aOk-3" target="FXC5fNaygE3iJHcJ0aOk-4" edge="1">
          <mxGeometry relative="1" as="geometry" />
        </mxCell>
        <mxCell id="FXC5fNaygE3iJHcJ0aOk-29" style="edgeStyle=orthogonalEdgeStyle;rounded=0;orthogonalLoop=1;jettySize=auto;html=1;exitX=1;exitY=0.5;exitDx=0;exitDy=0;entryX=0;entryY=0.5;entryDx=0;entryDy=0;entryPerimeter=0;" parent="1" source="FXC5fNaygE3iJHcJ0aOk-3" target="FXC5fNaygE3iJHcJ0aOk-10" edge="1">
          <mxGeometry relative="1" as="geometry" />
        </mxCell>
        <mxCell id="FXC5fNaygE3iJHcJ0aOk-30" style="edgeStyle=orthogonalEdgeStyle;rounded=0;orthogonalLoop=1;jettySize=auto;html=1;exitX=1;exitY=0.5;exitDx=0;exitDy=0;entryX=0;entryY=0.5;entryDx=0;entryDy=0;entryPerimeter=0;" parent="1" source="FXC5fNaygE3iJHcJ0aOk-3" target="FXC5fNaygE3iJHcJ0aOk-11" edge="1">
          <mxGeometry relative="1" as="geometry" />
        </mxCell>
        <mxCell id="FXC5fNaygE3iJHcJ0aOk-31" style="edgeStyle=orthogonalEdgeStyle;rounded=0;orthogonalLoop=1;jettySize=auto;html=1;exitX=1;exitY=0.5;exitDx=0;exitDy=0;entryX=0;entryY=0.5;entryDx=0;entryDy=0;entryPerimeter=0;" parent="1" source="FXC5fNaygE3iJHcJ0aOk-3" target="FXC5fNaygE3iJHcJ0aOk-12" edge="1">
          <mxGeometry relative="1" as="geometry" />
        </mxCell>
        <mxCell id="FXC5fNaygE3iJHcJ0aOk-32" style="edgeStyle=orthogonalEdgeStyle;rounded=0;orthogonalLoop=1;jettySize=auto;html=1;exitX=1;exitY=0.5;exitDx=0;exitDy=0;entryX=0;entryY=0.5;entryDx=0;entryDy=0;entryPerimeter=0;" parent="1" source="FXC5fNaygE3iJHcJ0aOk-3" target="FXC5fNaygE3iJHcJ0aOk-13" edge="1">
          <mxGeometry relative="1" as="geometry" />
        </mxCell>
        <mxCell id="FXC5fNaygE3iJHcJ0aOk-33" style="edgeStyle=orthogonalEdgeStyle;rounded=0;orthogonalLoop=1;jettySize=auto;html=1;exitX=1;exitY=0.5;exitDx=0;exitDy=0;entryX=0;entryY=0.5;entryDx=0;entryDy=0;entryPerimeter=0;" parent="1" source="FXC5fNaygE3iJHcJ0aOk-3" target="FXC5fNaygE3iJHcJ0aOk-14" edge="1">
          <mxGeometry relative="1" as="geometry" />
        </mxCell>
        <mxCell id="FXC5fNaygE3iJHcJ0aOk-34" style="edgeStyle=orthogonalEdgeStyle;rounded=0;orthogonalLoop=1;jettySize=auto;html=1;exitX=1;exitY=0.5;exitDx=0;exitDy=0;entryX=0;entryY=0.5;entryDx=0;entryDy=0;entryPerimeter=0;" parent="1" source="FXC5fNaygE3iJHcJ0aOk-3" target="FXC5fNaygE3iJHcJ0aOk-15" edge="1">
          <mxGeometry relative="1" as="geometry" />
        </mxCell>
        <mxCell id="FXC5fNaygE3iJHcJ0aOk-35" style="edgeStyle=orthogonalEdgeStyle;rounded=0;orthogonalLoop=1;jettySize=auto;html=1;exitX=1;exitY=0.5;exitDx=0;exitDy=0;entryX=0;entryY=0.5;entryDx=0;entryDy=0;entryPerimeter=0;" parent="1" source="FXC5fNaygE3iJHcJ0aOk-3" target="FXC5fNaygE3iJHcJ0aOk-9" edge="1">
          <mxGeometry relative="1" as="geometry" />
        </mxCell>
        <mxCell id="FXC5fNaygE3iJHcJ0aOk-36" style="edgeStyle=orthogonalEdgeStyle;rounded=0;orthogonalLoop=1;jettySize=auto;html=1;exitX=1;exitY=0.5;exitDx=0;exitDy=0;entryX=0;entryY=0.5;entryDx=0;entryDy=0;entryPerimeter=0;" parent="1" source="FXC5fNaygE3iJHcJ0aOk-3" target="FXC5fNaygE3iJHcJ0aOk-8" edge="1">
          <mxGeometry relative="1" as="geometry" />
        </mxCell>
        <mxCell id="FXC5fNaygE3iJHcJ0aOk-37" style="edgeStyle=orthogonalEdgeStyle;rounded=0;orthogonalLoop=1;jettySize=auto;html=1;exitX=1;exitY=0.5;exitDx=0;exitDy=0;entryX=0;entryY=0.5;entryDx=0;entryDy=0;entryPerimeter=0;" parent="1" source="FXC5fNaygE3iJHcJ0aOk-3" target="FXC5fNaygE3iJHcJ0aOk-7" edge="1">
          <mxGeometry relative="1" as="geometry" />
        </mxCell>
        <mxCell id="FXC5fNaygE3iJHcJ0aOk-38" style="edgeStyle=orthogonalEdgeStyle;rounded=0;orthogonalLoop=1;jettySize=auto;html=1;exitX=1;exitY=0.5;exitDx=0;exitDy=0;entryX=0;entryY=0.5;entryDx=0;entryDy=0;entryPerimeter=0;" parent="1" source="FXC5fNaygE3iJHcJ0aOk-3" target="FXC5fNaygE3iJHcJ0aOk-6" edge="1">
          <mxGeometry relative="1" as="geometry" />
        </mxCell>
        <mxCell id="FXC5fNaygE3iJHcJ0aOk-39" style="edgeStyle=orthogonalEdgeStyle;rounded=0;orthogonalLoop=1;jettySize=auto;html=1;exitX=1;exitY=0.5;exitDx=0;exitDy=0;entryX=0;entryY=0.5;entryDx=0;entryDy=0;entryPerimeter=0;" parent="1" source="FXC5fNaygE3iJHcJ0aOk-3" target="FXC5fNaygE3iJHcJ0aOk-21" edge="1">
          <mxGeometry relative="1" as="geometry" />
        </mxCell>
        <mxCell id="FXC5fNaygE3iJHcJ0aOk-40" style="edgeStyle=orthogonalEdgeStyle;rounded=0;orthogonalLoop=1;jettySize=auto;html=1;exitX=1;exitY=0.5;exitDx=0;exitDy=0;entryX=0;entryY=0.5;entryDx=0;entryDy=0;entryPerimeter=0;" parent="1" source="FXC5fNaygE3iJHcJ0aOk-3" target="FXC5fNaygE3iJHcJ0aOk-20" edge="1">
          <mxGeometry relative="1" as="geometry" />
        </mxCell>
        <mxCell id="FXC5fNaygE3iJHcJ0aOk-41" style="edgeStyle=orthogonalEdgeStyle;rounded=0;orthogonalLoop=1;jettySize=auto;html=1;exitX=1;exitY=0.5;exitDx=0;exitDy=0;entryX=0;entryY=0.5;entryDx=0;entryDy=0;entryPerimeter=0;" parent="1" source="FXC5fNaygE3iJHcJ0aOk-3" target="FXC5fNaygE3iJHcJ0aOk-19" edge="1">
          <mxGeometry relative="1" as="geometry" />
        </mxCell>
        <mxCell id="FXC5fNaygE3iJHcJ0aOk-42" style="edgeStyle=orthogonalEdgeStyle;rounded=0;orthogonalLoop=1;jettySize=auto;html=1;exitX=1;exitY=0.5;exitDx=0;exitDy=0;entryX=0;entryY=0.5;entryDx=0;entryDy=0;entryPerimeter=0;" parent="1" source="FXC5fNaygE3iJHcJ0aOk-3" target="FXC5fNaygE3iJHcJ0aOk-18" edge="1">
          <mxGeometry relative="1" as="geometry" />
        </mxCell>
        <mxCell id="FXC5fNaygE3iJHcJ0aOk-43" style="edgeStyle=orthogonalEdgeStyle;rounded=0;orthogonalLoop=1;jettySize=auto;html=1;exitX=1;exitY=0.5;exitDx=0;exitDy=0;entryX=0;entryY=0.5;entryDx=0;entryDy=0;entryPerimeter=0;" parent="1" source="FXC5fNaygE3iJHcJ0aOk-3" target="FXC5fNaygE3iJHcJ0aOk-25" edge="1">
          <mxGeometry relative="1" as="geometry" />
        </mxCell>
        <mxCell id="FXC5fNaygE3iJHcJ0aOk-3" value="Input: To-be-encoeded signal&lt;br&gt;S[15:0]" style="rounded=0;whiteSpace=wrap;html=1;" parent="1" vertex="1">
          <mxGeometry x="100" y="440" width="190" height="60" as="geometry" />
        </mxCell>
        <mxCell id="FXC5fNaygE3iJHcJ0aOk-57" style="edgeStyle=orthogonalEdgeStyle;rounded=0;orthogonalLoop=1;jettySize=auto;html=1;exitX=1;exitY=0.5;exitDx=0;exitDy=0;exitPerimeter=0;entryX=0.375;entryY=1;entryDx=10;entryDy=0;entryPerimeter=0;" parent="1" source="FXC5fNaygE3iJHcJ0aOk-4" target="FXC5fNaygE3iJHcJ0aOk-2" edge="1">
          <mxGeometry relative="1" as="geometry" />
        </mxCell>
        <mxCell id="FXC5fNaygE3iJHcJ0aOk-4" value="S[15]" style="html=1;shadow=0;dashed=0;align=center;verticalAlign=middle;shape=mxgraph.arrows2.arrow;dy=0;dx=10;notch=0;rounded=0;" parent="1" vertex="1">
          <mxGeometry x="350" y="50" width="60" height="30" as="geometry" />
        </mxCell>
        <mxCell id="gHFgi6DUg5RWtwFcLHI8-22" style="edgeStyle=orthogonalEdgeStyle;rounded=0;orthogonalLoop=1;jettySize=auto;html=1;exitX=1;exitY=0.5;exitDx=0;exitDy=0;exitPerimeter=0;entryX=0.375;entryY=1;entryDx=10;entryDy=0;entryPerimeter=0;" edge="1" parent="1" source="FXC5fNaygE3iJHcJ0aOk-6" target="FXC5fNaygE3iJHcJ0aOk-56">
          <mxGeometry relative="1" as="geometry">
            <Array as="points">
              <mxPoint x="510" y="640" />
              <mxPoint x="510" y="600" />
              <mxPoint x="1156" y="600" />
            </Array>
          </mxGeometry>
        </mxCell>
        <mxCell id="FXC5fNaygE3iJHcJ0aOk-6" value="S[5]" style="html=1;shadow=0;dashed=0;align=center;verticalAlign=middle;shape=mxgraph.arrows2.arrow;dy=0;dx=10;notch=0;rounded=0;" parent="1" vertex="1">
          <mxGeometry x="350" y="625" width="60" height="30" as="geometry" />
        </mxCell>
        <mxCell id="gHFgi6DUg5RWtwFcLHI8-21" style="edgeStyle=orthogonalEdgeStyle;rounded=0;orthogonalLoop=1;jettySize=auto;html=1;exitX=1;exitY=0.5;exitDx=0;exitDy=0;exitPerimeter=0;entryX=0.375;entryY=1;entryDx=10;entryDy=0;entryPerimeter=0;" edge="1" parent="1" source="FXC5fNaygE3iJHcJ0aOk-7" target="FXC5fNaygE3iJHcJ0aOk-46">
          <mxGeometry relative="1" as="geometry" />
        </mxCell>
        <mxCell id="FXC5fNaygE3iJHcJ0aOk-7" value="S[6]" style="html=1;shadow=0;dashed=0;align=center;verticalAlign=middle;shape=mxgraph.arrows2.arrow;dy=0;dx=10;notch=0;rounded=0;" parent="1" vertex="1">
          <mxGeometry x="350" y="568" width="60" height="30" as="geometry" />
        </mxCell>
        <mxCell id="gHFgi6DUg5RWtwFcLHI8-20" style="edgeStyle=orthogonalEdgeStyle;rounded=0;orthogonalLoop=1;jettySize=auto;html=1;exitX=1;exitY=0.5;exitDx=0;exitDy=0;exitPerimeter=0;entryX=0.375;entryY=1;entryDx=10;entryDy=0;entryPerimeter=0;" edge="1" parent="1" source="FXC5fNaygE3iJHcJ0aOk-8" target="FXC5fNaygE3iJHcJ0aOk-45">
          <mxGeometry relative="1" as="geometry">
            <Array as="points">
              <mxPoint x="1010" y="525" />
              <mxPoint x="1010" y="470" />
              <mxPoint x="1447" y="470" />
            </Array>
          </mxGeometry>
        </mxCell>
        <mxCell id="FXC5fNaygE3iJHcJ0aOk-8" value="S[7]" style="html=1;shadow=0;dashed=0;align=center;verticalAlign=middle;shape=mxgraph.arrows2.arrow;dy=0;dx=10;notch=0;rounded=0;" parent="1" vertex="1">
          <mxGeometry x="350" y="510" width="60" height="30" as="geometry" />
        </mxCell>
        <mxCell id="gHFgi6DUg5RWtwFcLHI8-19" style="edgeStyle=orthogonalEdgeStyle;rounded=0;orthogonalLoop=1;jettySize=auto;html=1;exitX=1;exitY=0.5;exitDx=0;exitDy=0;exitPerimeter=0;entryX=0.375;entryY=1;entryDx=10;entryDy=0;entryPerimeter=0;" edge="1" parent="1" source="FXC5fNaygE3iJHcJ0aOk-9" target="FXC5fNaygE3iJHcJ0aOk-44">
          <mxGeometry relative="1" as="geometry" />
        </mxCell>
        <mxCell id="FXC5fNaygE3iJHcJ0aOk-9" value="S[8]" style="html=1;shadow=0;dashed=0;align=center;verticalAlign=middle;shape=mxgraph.arrows2.arrow;dy=0;dx=10;notch=0;rounded=0;" parent="1" vertex="1">
          <mxGeometry x="350" y="453" width="60" height="30" as="geometry" />
        </mxCell>
        <mxCell id="gHFgi6DUg5RWtwFcLHI8-13" style="edgeStyle=orthogonalEdgeStyle;rounded=0;orthogonalLoop=1;jettySize=auto;html=1;exitX=1;exitY=0.5;exitDx=0;exitDy=0;exitPerimeter=0;entryX=0.375;entryY=1;entryDx=10;entryDy=0;entryPerimeter=0;" edge="1" parent="1" source="FXC5fNaygE3iJHcJ0aOk-10" target="FXC5fNaygE3iJHcJ0aOk-48">
          <mxGeometry relative="1" as="geometry">
            <mxPoint x="2470" y="140" as="targetPoint" />
          </mxGeometry>
        </mxCell>
        <mxCell id="FXC5fNaygE3iJHcJ0aOk-10" value="S[14]" style="html=1;shadow=0;dashed=0;align=center;verticalAlign=middle;shape=mxgraph.arrows2.arrow;dy=0;dx=10;notch=0;rounded=0;" parent="1" vertex="1">
          <mxGeometry x="350" y="108" width="60" height="30" as="geometry" />
        </mxCell>
        <mxCell id="gHFgi6DUg5RWtwFcLHI8-14" style="edgeStyle=orthogonalEdgeStyle;rounded=0;orthogonalLoop=1;jettySize=auto;html=1;exitX=1;exitY=0.5;exitDx=0;exitDy=0;exitPerimeter=0;entryX=0.375;entryY=1;entryDx=10;entryDy=0;entryPerimeter=0;" edge="1" parent="1" source="FXC5fNaygE3iJHcJ0aOk-11" target="FXC5fNaygE3iJHcJ0aOk-49">
          <mxGeometry relative="1" as="geometry">
            <Array as="points">
              <mxPoint x="2319" y="180" />
            </Array>
          </mxGeometry>
        </mxCell>
        <mxCell id="FXC5fNaygE3iJHcJ0aOk-11" value="S[13]" style="html=1;shadow=0;dashed=0;align=center;verticalAlign=middle;shape=mxgraph.arrows2.arrow;dy=0;dx=10;notch=0;rounded=0;" parent="1" vertex="1">
          <mxGeometry x="350" y="165" width="60" height="30" as="geometry" />
        </mxCell>
        <mxCell id="gHFgi6DUg5RWtwFcLHI8-15" style="edgeStyle=orthogonalEdgeStyle;rounded=0;orthogonalLoop=1;jettySize=auto;html=1;exitX=1;exitY=0.5;exitDx=0;exitDy=0;exitPerimeter=0;entryX=0.375;entryY=1;entryDx=10;entryDy=0;entryPerimeter=0;" edge="1" parent="1" source="FXC5fNaygE3iJHcJ0aOk-12" target="FXC5fNaygE3iJHcJ0aOk-50">
          <mxGeometry relative="1" as="geometry">
            <Array as="points">
              <mxPoint x="2174" y="238" />
            </Array>
          </mxGeometry>
        </mxCell>
        <mxCell id="FXC5fNaygE3iJHcJ0aOk-12" value="S[12]" style="html=1;shadow=0;dashed=0;align=center;verticalAlign=middle;shape=mxgraph.arrows2.arrow;dy=0;dx=10;notch=0;rounded=0;" parent="1" vertex="1">
          <mxGeometry x="350" y="223" width="60" height="30" as="geometry" />
        </mxCell>
        <mxCell id="gHFgi6DUg5RWtwFcLHI8-16" style="edgeStyle=orthogonalEdgeStyle;rounded=0;orthogonalLoop=1;jettySize=auto;html=1;exitX=1;exitY=0.5;exitDx=0;exitDy=0;exitPerimeter=0;entryX=0.375;entryY=1;entryDx=10;entryDy=0;entryPerimeter=0;" edge="1" parent="1" source="FXC5fNaygE3iJHcJ0aOk-13" target="FXC5fNaygE3iJHcJ0aOk-51">
          <mxGeometry relative="1" as="geometry">
            <Array as="points">
              <mxPoint x="2028" y="295" />
            </Array>
          </mxGeometry>
        </mxCell>
        <mxCell id="FXC5fNaygE3iJHcJ0aOk-13" value="S[11]" style="html=1;shadow=0;dashed=0;align=center;verticalAlign=middle;shape=mxgraph.arrows2.arrow;dy=0;dx=10;notch=0;rounded=0;" parent="1" vertex="1">
          <mxGeometry x="350" y="280" width="60" height="30" as="geometry" />
        </mxCell>
        <mxCell id="gHFgi6DUg5RWtwFcLHI8-17" style="edgeStyle=orthogonalEdgeStyle;rounded=0;orthogonalLoop=1;jettySize=auto;html=1;exitX=1;exitY=0.5;exitDx=0;exitDy=0;exitPerimeter=0;entryX=0.375;entryY=1;entryDx=10;entryDy=0;entryPerimeter=0;" edge="1" parent="1" source="FXC5fNaygE3iJHcJ0aOk-14" target="FXC5fNaygE3iJHcJ0aOk-52">
          <mxGeometry relative="1" as="geometry">
            <Array as="points">
              <mxPoint x="1127" y="353" />
              <mxPoint x="1883" y="352" />
            </Array>
          </mxGeometry>
        </mxCell>
        <mxCell id="FXC5fNaygE3iJHcJ0aOk-14" value="S[10]" style="html=1;shadow=0;dashed=0;align=center;verticalAlign=middle;shape=mxgraph.arrows2.arrow;dy=0;dx=10;notch=0;rounded=0;" parent="1" vertex="1">
          <mxGeometry x="350" y="338" width="60" height="30" as="geometry" />
        </mxCell>
        <mxCell id="gHFgi6DUg5RWtwFcLHI8-18" style="edgeStyle=orthogonalEdgeStyle;rounded=0;orthogonalLoop=1;jettySize=auto;html=1;exitX=1;exitY=0.5;exitDx=0;exitDy=0;exitPerimeter=0;entryX=0.375;entryY=1;entryDx=10;entryDy=0;entryPerimeter=0;" edge="1" parent="1" source="FXC5fNaygE3iJHcJ0aOk-15" target="FXC5fNaygE3iJHcJ0aOk-53">
          <mxGeometry relative="1" as="geometry">
            <Array as="points">
              <mxPoint x="920" y="410" />
              <mxPoint x="920" y="380" />
              <mxPoint x="1738" y="380" />
            </Array>
          </mxGeometry>
        </mxCell>
        <mxCell id="FXC5fNaygE3iJHcJ0aOk-15" value="S[9]" style="html=1;shadow=0;dashed=0;align=center;verticalAlign=middle;shape=mxgraph.arrows2.arrow;dy=0;dx=10;notch=0;rounded=0;" parent="1" vertex="1">
          <mxGeometry x="350" y="395" width="60" height="30" as="geometry" />
        </mxCell>
        <mxCell id="gHFgi6DUg5RWtwFcLHI8-41" style="edgeStyle=orthogonalEdgeStyle;rounded=0;orthogonalLoop=1;jettySize=auto;html=1;exitX=1;exitY=0.5;exitDx=0;exitDy=0;exitPerimeter=0;entryX=0;entryY=0.21666666666666667;entryDx=0;entryDy=3;entryPerimeter=0;" edge="1" parent="1" source="FXC5fNaygE3iJHcJ0aOk-18" target="FXC5fNaygE3iJHcJ0aOk-54">
          <mxGeometry relative="1" as="geometry" />
        </mxCell>
        <mxCell id="FXC5fNaygE3iJHcJ0aOk-18" value="S[1]" style="html=1;shadow=0;dashed=0;align=center;verticalAlign=middle;shape=mxgraph.arrows2.arrow;dy=0;dx=10;notch=0;rounded=0;" parent="1" vertex="1">
          <mxGeometry x="350" y="855" width="60" height="30" as="geometry" />
        </mxCell>
        <mxCell id="gHFgi6DUg5RWtwFcLHI8-25" style="edgeStyle=orthogonalEdgeStyle;rounded=0;orthogonalLoop=1;jettySize=auto;html=1;exitX=1;exitY=0.5;exitDx=0;exitDy=0;exitPerimeter=0;entryX=0.375;entryY=1;entryDx=10;entryDy=0;entryPerimeter=0;" edge="1" parent="1" source="FXC5fNaygE3iJHcJ0aOk-19" target="FXC5fNaygE3iJHcJ0aOk-54">
          <mxGeometry relative="1" as="geometry">
            <Array as="points">
              <mxPoint x="560" y="813" />
              <mxPoint x="560" y="750" />
              <mxPoint x="720" y="750" />
            </Array>
          </mxGeometry>
        </mxCell>
        <mxCell id="FXC5fNaygE3iJHcJ0aOk-19" value="S[2]" style="html=1;shadow=0;dashed=0;align=center;verticalAlign=middle;shape=mxgraph.arrows2.arrow;dy=0;dx=10;notch=0;rounded=0;" parent="1" vertex="1">
          <mxGeometry x="350" y="798" width="60" height="30" as="geometry" />
        </mxCell>
        <mxCell id="gHFgi6DUg5RWtwFcLHI8-24" style="edgeStyle=orthogonalEdgeStyle;rounded=0;orthogonalLoop=1;jettySize=auto;html=1;exitX=1;exitY=0.5;exitDx=0;exitDy=0;exitPerimeter=0;entryX=0.375;entryY=1;entryDx=10;entryDy=0;entryPerimeter=0;" edge="1" parent="1" source="FXC5fNaygE3iJHcJ0aOk-20" target="FXC5fNaygE3iJHcJ0aOk-47">
          <mxGeometry relative="1" as="geometry">
            <Array as="points">
              <mxPoint x="540" y="755" />
              <mxPoint x="540" y="698" />
              <mxPoint x="865" y="698" />
            </Array>
          </mxGeometry>
        </mxCell>
        <mxCell id="FXC5fNaygE3iJHcJ0aOk-20" value="S[3]" style="html=1;shadow=0;dashed=0;align=center;verticalAlign=middle;shape=mxgraph.arrows2.arrow;dy=0;dx=10;notch=0;rounded=0;" parent="1" vertex="1">
          <mxGeometry x="350" y="740" width="60" height="30" as="geometry" />
        </mxCell>
        <mxCell id="gHFgi6DUg5RWtwFcLHI8-23" style="edgeStyle=orthogonalEdgeStyle;rounded=0;orthogonalLoop=1;jettySize=auto;html=1;exitX=1;exitY=0.5;exitDx=0;exitDy=0;exitPerimeter=0;entryX=0.375;entryY=1;entryDx=10;entryDy=0;entryPerimeter=0;" edge="1" parent="1" source="FXC5fNaygE3iJHcJ0aOk-21" target="FXC5fNaygE3iJHcJ0aOk-55">
          <mxGeometry relative="1" as="geometry">
            <Array as="points">
              <mxPoint x="520" y="698" />
              <mxPoint x="520" y="630" />
              <mxPoint x="1011" y="630" />
            </Array>
          </mxGeometry>
        </mxCell>
        <mxCell id="FXC5fNaygE3iJHcJ0aOk-21" value="S[4]" style="html=1;shadow=0;dashed=0;align=center;verticalAlign=middle;shape=mxgraph.arrows2.arrow;dy=0;dx=10;notch=0;rounded=0;" parent="1" vertex="1">
          <mxGeometry x="350" y="683" width="60" height="30" as="geometry" />
        </mxCell>
        <mxCell id="FXC5fNaygE3iJHcJ0aOk-25" value="S[0]" style="html=1;shadow=0;dashed=0;align=center;verticalAlign=middle;shape=mxgraph.arrows2.arrow;dy=0;dx=10;notch=0;rounded=0;" parent="1" vertex="1">
          <mxGeometry x="350" y="913" width="60" height="30" as="geometry" />
        </mxCell>
        <mxCell id="gHFgi6DUg5RWtwFcLHI8-1" style="edgeStyle=orthogonalEdgeStyle;rounded=0;orthogonalLoop=1;jettySize=auto;html=1;exitX=1;exitY=0.5;exitDx=0;exitDy=-5;exitPerimeter=0;entryX=0;entryY=0.21666666666666667;entryDx=0;entryDy=3;entryPerimeter=0;" edge="1" parent="1" source="FXC5fNaygE3iJHcJ0aOk-44" target="FXC5fNaygE3iJHcJ0aOk-53">
          <mxGeometry relative="1" as="geometry" />
        </mxCell>
        <mxCell id="FXC5fNaygE3iJHcJ0aOk-44" value="Mux" style="shadow=0;dashed=0;align=center;html=1;strokeWidth=1;shape=mxgraph.electrical.abstract.mux2;whiteSpace=wrap;flipV=1;flipH=0;rounded=0;" parent="1" vertex="1">
          <mxGeometry x="1552" y="456" width="80" height="120" as="geometry" />
        </mxCell>
        <mxCell id="gHFgi6DUg5RWtwFcLHI8-2" style="edgeStyle=orthogonalEdgeStyle;rounded=0;orthogonalLoop=1;jettySize=auto;html=1;exitX=1;exitY=0.5;exitDx=0;exitDy=-5;exitPerimeter=0;entryX=0;entryY=0.21666666666666667;entryDx=0;entryDy=3;entryPerimeter=0;" edge="1" parent="1" source="FXC5fNaygE3iJHcJ0aOk-45" target="FXC5fNaygE3iJHcJ0aOk-44">
          <mxGeometry relative="1" as="geometry" />
        </mxCell>
        <mxCell id="FXC5fNaygE3iJHcJ0aOk-45" value="Mux" style="shadow=0;dashed=0;align=center;html=1;strokeWidth=1;shape=mxgraph.electrical.abstract.mux2;whiteSpace=wrap;flipV=1;flipH=0;rounded=0;" parent="1" vertex="1">
          <mxGeometry x="1407" y="508" width="80" height="120" as="geometry" />
        </mxCell>
        <mxCell id="gHFgi6DUg5RWtwFcLHI8-3" style="edgeStyle=orthogonalEdgeStyle;rounded=0;orthogonalLoop=1;jettySize=auto;html=1;exitX=1;exitY=0.5;exitDx=0;exitDy=-5;exitPerimeter=0;entryX=0;entryY=0.21666666666666667;entryDx=0;entryDy=3;entryPerimeter=0;" edge="1" parent="1" source="FXC5fNaygE3iJHcJ0aOk-46" target="FXC5fNaygE3iJHcJ0aOk-45">
          <mxGeometry relative="1" as="geometry" />
        </mxCell>
        <mxCell id="FXC5fNaygE3iJHcJ0aOk-46" value="Mux" style="shadow=0;dashed=0;align=center;html=1;strokeWidth=1;shape=mxgraph.electrical.abstract.mux2;whiteSpace=wrap;flipV=1;flipH=0;rounded=0;" parent="1" vertex="1">
          <mxGeometry x="1262" y="561" width="80" height="120" as="geometry" />
        </mxCell>
        <mxCell id="gHFgi6DUg5RWtwFcLHI8-6" style="edgeStyle=orthogonalEdgeStyle;rounded=0;orthogonalLoop=1;jettySize=auto;html=1;exitX=1;exitY=0.5;exitDx=0;exitDy=-5;exitPerimeter=0;entryX=0;entryY=0.21666666666666667;entryDx=0;entryDy=3;entryPerimeter=0;" edge="1" parent="1" source="FXC5fNaygE3iJHcJ0aOk-47" target="FXC5fNaygE3iJHcJ0aOk-55">
          <mxGeometry relative="1" as="geometry" />
        </mxCell>
        <mxCell id="FXC5fNaygE3iJHcJ0aOk-47" value="Mux" style="shadow=0;dashed=0;align=center;html=1;strokeWidth=1;shape=mxgraph.electrical.abstract.mux2;whiteSpace=wrap;flipV=1;flipH=0;rounded=0;" parent="1" vertex="1">
          <mxGeometry x="825" y="718" width="80" height="120" as="geometry" />
        </mxCell>
        <mxCell id="FXC5fNaygE3iJHcJ0aOk-59" style="edgeStyle=orthogonalEdgeStyle;rounded=0;orthogonalLoop=1;jettySize=auto;html=1;exitX=1;exitY=0.5;exitDx=0;exitDy=-5;exitPerimeter=0;entryX=0;entryY=0.21666666666666667;entryDx=0;entryDy=3;entryPerimeter=0;" parent="1" source="FXC5fNaygE3iJHcJ0aOk-48" target="FXC5fNaygE3iJHcJ0aOk-2" edge="1">
          <mxGeometry relative="1" as="geometry" />
        </mxCell>
        <mxCell id="FXC5fNaygE3iJHcJ0aOk-48" value="Mux" style="shadow=0;dashed=0;align=center;html=1;strokeWidth=1;shape=mxgraph.electrical.abstract.mux2;whiteSpace=wrap;flipV=1;flipH=0;rounded=0;" parent="1" vertex="1">
          <mxGeometry x="2425" y="143" width="80" height="120" as="geometry" />
        </mxCell>
        <mxCell id="FXC5fNaygE3iJHcJ0aOk-60" style="edgeStyle=orthogonalEdgeStyle;rounded=0;orthogonalLoop=1;jettySize=auto;html=1;exitX=1;exitY=0.5;exitDx=0;exitDy=-5;exitPerimeter=0;entryX=0;entryY=0.21666666666666667;entryDx=0;entryDy=3;entryPerimeter=0;" parent="1" source="FXC5fNaygE3iJHcJ0aOk-49" target="FXC5fNaygE3iJHcJ0aOk-48" edge="1">
          <mxGeometry relative="1" as="geometry" />
        </mxCell>
        <mxCell id="FXC5fNaygE3iJHcJ0aOk-49" value="Mux" style="shadow=0;dashed=0;align=center;html=1;strokeWidth=1;shape=mxgraph.electrical.abstract.mux2;whiteSpace=wrap;flipV=1;flipH=0;rounded=0;" parent="1" vertex="1">
          <mxGeometry x="2279" y="195" width="80" height="120" as="geometry" />
        </mxCell>
        <mxCell id="FXC5fNaygE3iJHcJ0aOk-61" style="edgeStyle=orthogonalEdgeStyle;rounded=0;orthogonalLoop=1;jettySize=auto;html=1;exitX=1;exitY=0.5;exitDx=0;exitDy=-5;exitPerimeter=0;entryX=0;entryY=0.21666666666666667;entryDx=0;entryDy=3;entryPerimeter=0;" parent="1" source="FXC5fNaygE3iJHcJ0aOk-50" target="FXC5fNaygE3iJHcJ0aOk-49" edge="1">
          <mxGeometry relative="1" as="geometry" />
        </mxCell>
        <mxCell id="FXC5fNaygE3iJHcJ0aOk-50" value="Mux" style="shadow=0;dashed=0;align=center;html=1;strokeWidth=1;shape=mxgraph.electrical.abstract.mux2;whiteSpace=wrap;flipV=1;flipH=0;rounded=0;" parent="1" vertex="1">
          <mxGeometry x="2134" y="247" width="80" height="120" as="geometry" />
        </mxCell>
        <mxCell id="FXC5fNaygE3iJHcJ0aOk-62" style="edgeStyle=orthogonalEdgeStyle;rounded=0;orthogonalLoop=1;jettySize=auto;html=1;exitX=1;exitY=0.5;exitDx=0;exitDy=-5;exitPerimeter=0;entryX=0;entryY=0.21666666666666667;entryDx=0;entryDy=3;entryPerimeter=0;" parent="1" source="FXC5fNaygE3iJHcJ0aOk-51" target="FXC5fNaygE3iJHcJ0aOk-50" edge="1">
          <mxGeometry relative="1" as="geometry" />
        </mxCell>
        <mxCell id="FXC5fNaygE3iJHcJ0aOk-51" value="Mux" style="shadow=0;dashed=0;align=center;html=1;strokeWidth=1;shape=mxgraph.electrical.abstract.mux2;whiteSpace=wrap;flipV=1;flipH=0;rounded=0;" parent="1" vertex="1">
          <mxGeometry x="1988" y="299" width="80" height="120" as="geometry" />
        </mxCell>
        <mxCell id="FXC5fNaygE3iJHcJ0aOk-63" style="edgeStyle=orthogonalEdgeStyle;rounded=0;orthogonalLoop=1;jettySize=auto;html=1;exitX=1;exitY=0.5;exitDx=0;exitDy=-5;exitPerimeter=0;entryX=0;entryY=0.21666666666666667;entryDx=0;entryDy=3;entryPerimeter=0;" parent="1" source="FXC5fNaygE3iJHcJ0aOk-52" target="FXC5fNaygE3iJHcJ0aOk-51" edge="1">
          <mxGeometry relative="1" as="geometry" />
        </mxCell>
        <mxCell id="FXC5fNaygE3iJHcJ0aOk-52" value="Mux" style="shadow=0;dashed=0;align=center;html=1;strokeWidth=1;shape=mxgraph.electrical.abstract.mux2;whiteSpace=wrap;flipV=1;flipH=0;rounded=0;" parent="1" vertex="1">
          <mxGeometry x="1843" y="352" width="80" height="120" as="geometry" />
        </mxCell>
        <mxCell id="FXC5fNaygE3iJHcJ0aOk-64" style="edgeStyle=orthogonalEdgeStyle;rounded=0;orthogonalLoop=1;jettySize=auto;html=1;exitX=1;exitY=0.5;exitDx=0;exitDy=-5;exitPerimeter=0;entryX=0;entryY=0.21666666666666667;entryDx=0;entryDy=3;entryPerimeter=0;" parent="1" source="FXC5fNaygE3iJHcJ0aOk-53" target="FXC5fNaygE3iJHcJ0aOk-52" edge="1">
          <mxGeometry relative="1" as="geometry" />
        </mxCell>
        <mxCell id="FXC5fNaygE3iJHcJ0aOk-53" value="Mux" style="shadow=0;dashed=0;align=center;html=1;strokeWidth=1;shape=mxgraph.electrical.abstract.mux2;whiteSpace=wrap;flipV=1;flipH=0;rounded=0;" parent="1" vertex="1">
          <mxGeometry x="1698" y="404" width="80" height="120" as="geometry" />
        </mxCell>
        <mxCell id="gHFgi6DUg5RWtwFcLHI8-7" style="edgeStyle=orthogonalEdgeStyle;rounded=0;orthogonalLoop=1;jettySize=auto;html=1;exitX=1;exitY=0.5;exitDx=0;exitDy=-5;exitPerimeter=0;entryX=0;entryY=0.21666666666666667;entryDx=0;entryDy=3;entryPerimeter=0;" edge="1" parent="1" source="FXC5fNaygE3iJHcJ0aOk-54" target="FXC5fNaygE3iJHcJ0aOk-47">
          <mxGeometry relative="1" as="geometry" />
        </mxCell>
        <mxCell id="FXC5fNaygE3iJHcJ0aOk-54" value="Mux" style="shadow=0;dashed=0;align=center;html=1;strokeWidth=1;shape=mxgraph.electrical.abstract.mux2;whiteSpace=wrap;flipV=1;flipH=0;rounded=0;direction=east;" parent="1" vertex="1">
          <mxGeometry x="680" y="771" width="80" height="120" as="geometry" />
        </mxCell>
        <mxCell id="gHFgi6DUg5RWtwFcLHI8-5" style="edgeStyle=orthogonalEdgeStyle;rounded=0;orthogonalLoop=1;jettySize=auto;html=1;exitX=1;exitY=0.5;exitDx=0;exitDy=-5;exitPerimeter=0;entryX=0;entryY=0.21666666666666667;entryDx=0;entryDy=3;entryPerimeter=0;" edge="1" parent="1" source="FXC5fNaygE3iJHcJ0aOk-55" target="FXC5fNaygE3iJHcJ0aOk-56">
          <mxGeometry relative="1" as="geometry" />
        </mxCell>
        <mxCell id="FXC5fNaygE3iJHcJ0aOk-55" value="Mux" style="shadow=0;dashed=0;align=center;html=1;strokeWidth=1;shape=mxgraph.electrical.abstract.mux2;whiteSpace=wrap;flipV=1;flipH=0;rounded=0;" parent="1" vertex="1">
          <mxGeometry x="971" y="665" width="80" height="120" as="geometry" />
        </mxCell>
        <mxCell id="gHFgi6DUg5RWtwFcLHI8-4" style="edgeStyle=orthogonalEdgeStyle;rounded=0;orthogonalLoop=1;jettySize=auto;html=1;exitX=1;exitY=0.5;exitDx=0;exitDy=-5;exitPerimeter=0;entryX=0;entryY=0.21666666666666667;entryDx=0;entryDy=3;entryPerimeter=0;" edge="1" parent="1" source="FXC5fNaygE3iJHcJ0aOk-56" target="FXC5fNaygE3iJHcJ0aOk-46">
          <mxGeometry relative="1" as="geometry" />
        </mxCell>
        <mxCell id="FXC5fNaygE3iJHcJ0aOk-56" value="Mux" style="shadow=0;dashed=0;align=center;html=1;strokeWidth=1;shape=mxgraph.electrical.abstract.mux2;whiteSpace=wrap;flipV=1;flipH=0;rounded=0;" parent="1" vertex="1">
          <mxGeometry x="1116" y="613" width="80" height="120" as="geometry" />
        </mxCell>
        <mxCell id="gHFgi6DUg5RWtwFcLHI8-46" value="Z[3:0]" style="rounded=1;whiteSpace=wrap;html=1;" vertex="1" parent="1">
          <mxGeometry x="2740" y="120" width="120" height="60" as="geometry" />
        </mxCell>
      </root>
    </mxGraphModel>
  </diagram>
</mxfile>
